<svg width="16" height="16" viewBox="0 0 16 16" xmlns="http://www.w3.org/2000/svg" xmlns:xlink="http://www.w3.org/1999/xlink" fill="currentColor" overflow="hidden"><path d="M15 2C15 1.44772 14.5523 1 14 1L2 1C1.44772 1 1 1.44772 1 2L1 14C1 14.5523 1.44772 15 2 15L14 15C14.5523 15 15 14.5523 15 14L15 2ZM0 2C-4.44089e-16 0.895431 0.895431 -2.22045e-16 2 -2.22045e-16L14 0C15.1046 -4.44089e-16 16 0.895431 16 2L16 14C16 15.1046 15.1046 16 14 16L2 16C0.895431 16 -2.22045e-16 15.1046 -2.22045e-16 14L0 2ZM4.5 7.5C4.22386 7.5 4 7.72386 4 8 4 8.27614 4.22386 8.5 4.5 8.5L10.293 8.5 8.146 10.646C7.95049 10.8415 7.95049 11.1585 8.146 11.354 8.34151 11.5495 8.65849 11.5495 8.854 11.354L11.854 8.354C12.0495 8.15899 12.0499 7.8424 11.8549 7.64689 11.8546 7.6466 11.8543 7.6463 11.854 7.646L8.854 4.646C8.65849 4.45049 8.34151 4.45049 8.146 4.646 7.95049 4.84151 7.95049 5.15849 8.146 5.354L10.293 7.5 4.5 7.5Z" stroke="#FF0000" fill="#000000" fill-rule="evenodd"/></svg>